<mxfile host="app.diagrams.net" modified="2024-04-06T00:16:52.746Z" agent="Mozilla/5.0 (Windows NT 10.0; Win64; x64) AppleWebKit/537.36 (KHTML, like Gecko) Chrome/123.0.0.0 Safari/537.36" version="24.2.2" etag="-qWMSXqqgcU16H3IuaaF" type="github">
  <diagram name="PÃ¡gina-1" id="_ct66VDC2gnKwBBsYYJ7">
    <mxGraphModel>
      <root>
        <mxCell id="0" />
        <mxCell id="1" parent="0" />
      </root>
    </mxGraphModel>
  </diagram>
</mxfile>
